<?xml version="1.0" encoding="iso-8859-1"?>
<!-- Generator: Adobe Illustrator 19.0.0, SVG Export Plug-In . SVG Version: 6.00 Build 0)  -->
<svg version="1.1" id="Capa_1" xmlns="http://www.w3.org/2000/svg" xmlns:xlink="http://www.w3.org/1999/xlink" x="0px" y="0px"
	 viewBox="0 0 456.005 456.005" style="enable-background:new 0 0 456.005 456.005;" xml:space="preserve">
<path style="fill:#1C1C1C;" d="M228,0C102.079,0,0,102.079,0,228s102.079,228,228,228s228-102.079,228-228S353.921,0,228,0z
	 M232,256c-17.673,0-32-14.327-32-32s14.327-32,32-32s32,14.327,32,32S249.673,256,232,256z"/>
<path style="fill:#1C1C1C;" d="M254.624,201.376c12.712,12.278,13.064,32.536,0.786,45.248
	c-12.278,12.712-32.536,13.064-45.248,0.786c-0.267-0.257-0.529-0.519-0.786-0.786l-142.6,142.6
	c89.042,89.042,233.406,89.042,322.448,0s89.042-233.406,0-322.448L254.624,201.376z"/>
<g>
	<path style="fill:#9E9E9E;" d="M232,352c-70.658-0.084-127.916-57.342-128-128h16c0.066,61.828,50.172,111.934,112,112V352z"/>
	<path style="fill:#9E9E9E;" d="M360,224h-16c-0.066-61.828-50.172-111.934-112-112V96C302.658,96.084,359.916,153.342,360,224z"/>
	<path style="fill:#9E9E9E;" d="M232,408c-101.573-0.115-183.885-82.427-184-184h16c0.106,92.74,75.26,167.894,168,168V408z"/>
	<path style="fill:#9E9E9E;" d="M416,224h-16c-0.106-92.74-75.26-167.894-168-168V40C333.573,40.115,415.885,122.427,416,224z"/>
</g>
<path style="fill:#C97EF4;" d="M232,160c-35.346,0-64,28.654-64,64s28.654,64,64,64s64-28.654,64-64S267.346,160,232,160z M232,256
	c-17.673,0-32-14.327-32-32s14.327-32,32-32s32,14.327,32,32S249.673,256,232,256z"/>
<g>
</g>
<g>
</g>
<g>
</g>
<g>
</g>
<g>
</g>
<g>
</g>
<g>
</g>
<g>
</g>
<g>
</g>
<g>
</g>
<g>
</g>
<g>
</g>
<g>
</g>
<g>
</g>
<g>
</g>
</svg>
